<svg width="33" height="51" viewBox="0 0 33 51" fill="none" xmlns="http://www.w3.org/2000/svg">
<path d="M31.7518 35.8953C31.1713 34.5936 29.6695 33.892 27.8838 34.0871C26.1813 34.2732 24.7225 34.9944 23.4924 36.1619C21.9574 37.6193 21.7296 38.9027 22.6094 40.7992C21.1655 41.426 19.9663 40.9714 19.0042 39.514C18.1202 38.1758 17.2923 36.7755 16.2386 35.5795C15.6512 34.9126 15.0286 34.3261 12.5568 33.0862C12.4314 32.8897 12.3004 32.6942 12.1583 32.5015C11.6012 31.7448 11.0213 30.9861 10.5989 30.1541C9.67235 28.3281 10.1967 26.7229 12.068 25.9348C13.1339 25.4863 14.3449 25.3923 15.4674 25.0606C15.9818 24.9086 16.675 24.6916 16.8836 24.2931C17.6862 22.7609 18.3256 21.1426 19.1408 19.2956C13.9566 19.181 10.5157 21.1473 8.89174 26.0821C7.74678 22.8596 8.54613 19.8718 11.0138 17.7325C13.6175 15.4748 16.7966 14.6802 20.0982 14.1741C20.6786 14.0848 21.5341 13.8762 21.7273 13.4693C23.6626 9.39221 25.4853 5.26228 27.381 1.05706C26.9591 0.927039 26.7468 0.813384 26.5288 0.800757C20.8536 0.476161 15.4893 1.52103 10.6508 4.61637C2.09725 10.0882 0.30031 19.2226 6.21736 27.4722C7.54521 29.3229 9.23036 30.9253 10.8108 32.5848C12.5325 34.3925 12.7813 36.2082 11.4455 38.0187C9.08586 36.1852 7.2253 36.0912 4.70339 37.7624C2.68239 39.1014 1.21095 40.9017 0.406023 43.2136C-0.438704 45.6382 0.0570849 47.9553 1.68428 49.1802C3.42092 50.4884 5.59154 50.4024 7.75102 48.8472C10.9085 46.5727 12.7186 43.396 13.6522 39.6866C13.8402 38.9396 13.9262 38.2114 13.9206 37.5009L13.9445 37.5673C14.7583 37.3475 15.5876 36.985 17.3798 38.9878C17.8153 39.4747 18.3073 39.9209 18.7357 40.4195C19.9654 41.8511 21.5107 42.6041 23.4002 42.5653C26.0761 42.5111 28.526 41.7754 30.5722 39.9793C31.9716 38.7511 32.3706 37.2844 31.7518 35.8953Z" fill="white"/>
</svg>
