<svg width="33" height="51" viewBox="0 0 33 51" fill="none" xmlns="http://www.w3.org/2000/svg">
<path d="M31.7522 35.8956C31.1718 34.5939 29.67 33.8923 27.8843 34.0874C26.1818 34.2735 24.723 34.9948 23.4929 36.1622C21.9578 37.6196 21.7301 38.903 22.6098 40.7996C21.166 41.4263 19.9668 40.9717 19.0047 39.5143C18.1207 38.1761 17.2928 36.7758 16.2391 35.5799C15.6517 34.9129 15.0291 34.3264 12.5573 33.0865C12.4319 32.89 12.3009 32.6945 12.1588 32.5018C11.6017 31.7451 11.0217 30.9864 10.5994 30.1544C9.67284 28.3284 10.1972 26.7232 12.0685 25.9351C13.1344 25.4866 14.3454 25.3926 15.4679 25.061C15.9823 24.909 16.6755 24.6919 16.8841 24.2934C17.6867 22.7612 18.3261 21.1429 19.1413 19.2959C13.9571 19.1813 10.5162 21.1476 8.89223 26.0824C7.74727 22.8599 8.54662 19.8721 11.0143 17.7328C13.618 15.4751 16.7971 14.6805 20.0987 14.1744C20.6791 14.0851 21.5346 13.8765 21.7277 13.4696C23.6631 9.39252 25.4858 5.2626 27.3815 1.05738C26.9596 0.927356 26.7472 0.8137 26.5293 0.801074C20.8541 0.476477 15.4898 1.52135 10.6513 4.61669C2.09773 10.0885 0.300798 19.2229 6.21785 27.4725C7.5457 29.3232 9.23085 30.9256 10.8113 32.5851C12.5329 34.3928 12.7818 36.2085 11.446 38.019C9.08635 36.1856 7.22579 36.0915 4.70387 37.7627C2.68288 39.1018 1.21144 40.902 0.406511 43.2139C-0.438215 45.6385 0.0575732 47.9556 1.68477 49.1805C3.4214 50.4887 5.59203 50.4027 7.75151 48.8475C10.909 46.573 12.7191 43.3963 13.6527 39.6869C13.8407 38.9399 13.9267 38.2117 13.9211 37.5012L13.945 37.5676C14.7588 37.3478 15.5881 36.9853 17.3803 38.9881C17.8158 39.475 18.3078 39.9212 18.7362 40.4198C19.9659 41.8514 21.5112 42.6045 23.4007 42.5656C26.0766 42.5114 28.5264 41.7757 30.5727 39.9797C31.9721 38.7514 32.371 37.2847 31.7522 35.8956Z" fill="#CB0000"/>
</svg>
