<svg width="21" height="33" viewBox="0 0 21 33" fill="none" xmlns="http://www.w3.org/2000/svg">
<path d="M20.1334 23.182C19.7654 22.3566 18.8131 21.9118 17.6808 22.0354C16.6012 22.1535 15.6762 22.6108 14.8963 23.351C13.9229 24.2751 13.7785 25.0889 14.3363 26.2915C13.4209 26.6889 12.6604 26.4007 12.0503 25.4766C11.4898 24.6281 10.9649 23.7401 10.2967 22.9818C9.92424 22.5589 9.52949 22.187 7.96211 21.4008C7.88264 21.2762 7.79957 21.1522 7.70942 21.03C7.35618 20.5502 6.98845 20.0691 6.72062 19.5415C6.13313 18.3837 6.46559 17.3659 7.65217 16.8662C8.32808 16.5818 9.09593 16.5221 9.80769 16.3119C10.1339 16.2155 10.5734 16.0779 10.7057 15.8252C11.2146 14.8536 11.62 13.8275 12.1369 12.6563C8.84971 12.5837 6.66786 13.8305 5.63817 16.9596C4.91215 14.9162 5.41902 13.0217 6.98372 11.6652C8.63475 10.2336 10.6505 9.72975 12.744 9.40886C13.1121 9.35221 13.6545 9.21994 13.777 8.96193C15.0042 6.3767 16.16 3.75797 17.362 1.09149C17.0945 1.00904 16.9598 0.936974 16.8216 0.928967C13.223 0.723141 9.82161 1.38569 6.75358 3.3484C1.32985 6.81801 0.190443 12.6101 3.94237 17.841C4.78435 19.0145 5.85286 20.0306 6.85499 21.0828C7.9467 22.2291 8.10448 23.3804 7.25746 24.5284C5.76124 23.3659 4.5815 23.3062 2.98237 24.3659C1.70088 25.215 0.767866 26.3565 0.25746 27.8224C-0.278185 29.3599 0.0362072 30.8291 1.06798 31.6058C2.16917 32.4353 3.54555 32.3808 4.91484 31.3947C6.91698 29.9524 8.06471 27.9381 8.65669 25.586C8.77589 25.1124 8.83046 24.6506 8.82692 24.2001L8.84205 24.2422C9.35808 24.1028 9.88389 23.873 11.0204 25.1429C11.2965 25.4516 11.6085 25.7346 11.8801 26.0507C12.6598 26.9585 13.6397 27.436 14.8378 27.4114C16.5345 27.377 18.088 26.9105 19.3855 25.7716C20.2728 24.9928 20.5258 24.0628 20.1334 23.182Z" fill="#CB0000"/>
</svg>
